<svg width="32" height="32" viewBox="0 0 32 32" fill="none" xmlns="http://www.w3.org/2000/svg">
<path d="M32 16C32 7.16344 24.8366 0 16 0C7.16344 0 0 7.16344 0 16C0 24.8366 7.16344 32 16 32C24.8366 32 32 24.8366 32 16Z" fill="#26272B"/>
<path fill-rule="evenodd" clip-rule="evenodd" d="M13.6578 10.3334C12.8413 9.76545 11.865 9.48145 10.729 9.48145C9.59301 9.48145 8.61677 9.76545 7.80027 10.3334C6.98376 10.8896 6.36842 11.6588 5.95425 12.6409C5.54009 13.6231 5.33301 14.7473 5.33301 16.0135C5.33301 17.2796 5.54009 18.4038 5.95425 19.386C6.36842 20.3681 6.98376 21.1432 7.80027 21.7112C8.61677 22.2674 9.59301 22.5455 10.729 22.5455C11.865 22.5455 12.8413 22.2674 13.6578 21.7112C14.4743 21.1432 15.0896 20.3681 15.5038 19.386C15.918 18.4038 16.125 17.2796 16.125 16.0135C16.125 14.7473 15.918 13.6231 15.5038 12.6409C15.0896 11.6588 14.4743 10.8896 13.6578 10.3334ZM12.2666 12.5209C11.8699 12.104 11.3574 11.8955 10.729 11.8955C9.88886 11.8955 9.24987 12.2682 8.81203 13.0137C8.38602 13.7592 8.17301 14.7591 8.17301 16.0135C8.17301 16.8009 8.25695 17.4881 8.42483 18.075L12.2666 12.5209ZM9.18015 19.5046C9.58365 19.9225 10.0999 20.1315 10.729 20.1315C11.5692 20.1315 12.2023 19.7587 12.6283 19.0132C13.0661 18.2677 13.285 17.2678 13.285 16.0135C13.285 15.2236 13.1982 14.5347 13.0246 13.9466L9.18015 19.5046Z" fill="#FCFCFC"/>
<path d="M19.4952 17.3625L16.1582 22.2615H19.3532L20.9152 19.4925C21.0336 19.3032 21.1045 19.0546 21.1282 18.747C21.14 18.6287 21.1637 18.5399 21.1992 18.4808C21.2347 18.4097 21.3057 18.3742 21.4122 18.3742C21.5779 18.3742 21.6725 18.4808 21.6962 18.6938V18.747C21.7199 19.0546 21.7909 19.3032 21.9092 19.4925L23.4712 22.2615H26.6662L23.3292 17.3625L26.3822 12.8895H23.1872L21.9092 15.2147C21.7672 15.4632 21.6962 15.7117 21.6962 15.9603C21.6962 16.0667 21.6725 16.1555 21.6252 16.2265C21.5897 16.2975 21.5187 16.333 21.4122 16.333C21.3057 16.333 21.2288 16.2975 21.1815 16.2265C21.146 16.1555 21.1282 16.0667 21.1282 15.9603C21.1282 15.7117 21.0572 15.4632 20.9152 15.2147L19.6372 12.8895H16.4422L19.4952 17.3625Z" fill="#FCFCFC"/>
</svg>
