<svg width="34" height="34" viewBox="0 0 34 34" fill="none" xmlns="http://www.w3.org/2000/svg">
<path d="M33 17C33 25.8366 25.8366 33 17 33C8.16345 33 1 25.8366 1 17C1 8.16343 8.16345 1 17 1C25.8366 1 33 8.16343 33 17Z" fill="#0C192B" stroke="black" stroke-opacity="0.08"/>
<path d="M11.3494 18.8273L12.0549 13.5267L5.93555 9.27864L11.5267 11.1725L12.8471 9.14659L17.6686 6.15485L28.2963 12.0101L28.8471 20.9438L24.1124 27.5234L20.3699 28.0968L22.3053 24.5543V21.1438L20.8981 18.4802L19.4682 17.5333L17.2687 19.8007V22.2001L15.5521 23.8073L13.3715 24.0714L12.4057 24.6184L10.8212 24.1129L10.161 21.7361L11.3494 20.0648V18.8273Z" fill="white"/>
<path d="M21.1204 9.23325C19.9546 8.9918 18.6794 9.05594 18.6794 9.05594C18.6794 9.05594 18.2607 10.9913 15.665 11.5006C15.6839 11.5006 19.0944 12.6664 21.1204 9.23325Z" fill="#94A6C3"/>
<path d="M22.1773 26.7951C23.5845 25.6935 24.6409 24.1768 25.1275 22.4603C25.1502 22.3961 25.3463 22.2829 25.4784 22.1962C25.6972 22.0641 25.9198 21.9547 25.9613 21.7774C26.0481 21.2719 26.0933 20.7437 26.0933 20.2155C26.0933 20.0193 25.8934 19.8194 25.6972 19.6232C25.5425 19.4911 25.3878 19.3365 25.3878 19.2271C25.169 17.2238 24.2447 15.3525 22.7696 13.9906L22.6149 14.1452C24.0448 15.4883 24.9691 17.3143 25.169 19.2497C25.1917 19.427 25.3652 19.6006 25.5425 19.7779C25.6972 19.9099 25.8745 20.1099 25.8745 20.1966C25.8745 20.7022 25.8293 21.2077 25.7425 21.7133C25.7198 21.8 25.5237 21.8906 25.369 21.9774C25.1502 22.0868 24.9502 22.1962 24.9087 22.3735C24.3805 24.2447 23.1695 25.8746 21.5623 26.9309C21.8491 26.316 22.7507 24.3127 23.2336 23.2978L23.1469 20.042L20.3513 17.3369L18.7668 17.5558L17.0276 20.374C17.0276 20.374 17.8425 21.4077 16.6956 22.6187C15.5751 23.8071 14.6923 24.0712 14.6923 24.0712L13.8773 23.6298C14.1188 23.3204 14.6055 22.8602 14.979 22.5508C15.6166 22.0226 16.2541 21.9774 16.2541 21.4077C16.2806 20.2155 15.0016 20.5437 15.0016 20.5437L14.5376 20.9851L14.3414 22.6149L13.3756 23.826L13.2662 23.8033L11.6816 23.4525C11.6816 23.4525 12.6512 22.9469 12.8059 22.3735C12.9606 21.8227 12.4965 19.9967 12.4739 19.8873C12.4965 19.9099 12.9379 20.2834 13.1341 20.8984C13.485 19.9288 13.949 19.0045 14.0811 18.9177C14.2131 18.8309 15.9938 17.884 15.9938 17.884L15.4015 19.4459L15.8429 19.2044L16.8993 16.6088C16.8993 16.6088 17.933 16.1033 18.7026 16.1033C20.0872 16.0806 22.1358 14.3867 21.2115 11.3497C21.4756 11.4591 26.0518 13.7491 26.8441 18.2386C27.4364 21.6906 25.4784 24.9238 22.1773 26.7951Z" fill="#94A6C3"/>
<path d="M16.9409 9.71609C17.4464 9.12 17.2502 8.24097 17.2502 8.24097L15.7751 10.4216C15.7525 10.4216 16.2995 10.4442 16.9409 9.71609Z" fill="#1B314F"/>
<path d="M11.9867 21.6229L12.164 20.7439C12.164 20.7439 11.4358 22.0191 11.3717 22.1964C11.3038 22.3963 11.417 22.7472 11.6999 22.7246C11.9867 22.7019 12.3375 22.2832 12.3375 21.9776C12.3375 21.5814 11.9867 21.6229 11.9867 21.6229Z" fill="#1B314F"/>
<path d="M25.0594 7.62618C25.0594 7.62618 26.161 7.67145 27.3041 7.8035C24.7274 5.77756 22.2864 5.18524 20.3058 5.18524C17.5781 5.18524 15.7295 6.30951 15.6163 6.37364L16.4765 5.00793C16.4765 5.00793 13.0433 4.67593 11.8323 8.30904C11.5229 7.53941 11.24 6.41514 11.24 6.41514C11.24 6.41514 9.4555 7.98081 10.293 10.5764C8.24446 9.82943 5.32062 8.79194 5.20744 8.77308C5.05276 8.75044 5.00749 8.81835 5.00749 8.81835C5.00749 8.81835 4.96222 8.88249 5.09426 8.99567C5.33949 9.18807 9.96104 12.6024 10.9759 13.2626C10.7571 14.0549 10.7571 14.4284 10.9759 14.8018C11.2853 15.3074 11.3041 15.5715 11.2626 15.945C11.2173 16.3185 10.8212 19.5554 10.7344 19.9516C10.6477 20.3477 9.72336 21.7549 9.76486 22.1737C9.81013 22.5925 10.3798 24.3732 10.8891 24.5731C11.2626 24.7052 12.1869 24.9919 12.8019 24.9919C13.0207 24.9919 13.2206 24.9466 13.3074 24.8599C13.6809 24.5316 13.7903 24.4637 14.0544 24.4637C14.0771 24.4637 14.0997 24.4637 14.1186 24.4637C14.228 24.4637 14.36 24.4864 14.5147 24.4864C14.8655 24.4864 15.3296 24.4185 15.6578 24.1129C16.1407 23.63 16.9783 22.9697 17.2423 22.6604C17.5743 22.2416 17.7479 21.6719 17.6611 21.0985C17.5932 20.5703 17.8799 20.1063 18.2119 19.646C18.6307 19.0952 19.4003 18.1067 19.4003 18.1067C20.9207 19.2461 21.8677 20.9853 21.8677 22.9207C21.8677 26.3538 18.8759 29.1268 15.1787 29.1268C14.6052 29.1268 14.0582 29.0626 13.5074 28.9306C15.2013 29.5229 16.6312 29.7229 17.8007 29.7229C20.2869 29.7229 21.6074 28.8212 21.6074 28.8212C21.6074 28.8212 21.1471 29.4173 20.3963 30.0964C20.419 30.0964 20.419 30.0964 20.419 30.0964C24.535 29.5229 26.5383 26.135 26.5383 26.135C26.5383 26.135 26.3836 27.2367 26.1874 27.9837C31.6616 23.8676 30.7373 18.7179 30.7146 18.5444C30.7599 18.6085 31.3107 19.2687 31.5937 19.6234C32.4765 10.5538 25.0594 7.62618 25.0594 7.62618ZM16.6312 22.1096C16.5444 22.219 16.1709 22.551 15.9068 22.7924C15.6427 23.0339 15.356 23.2753 15.1372 23.4979C15.0504 23.5847 14.8731 23.63 14.609 23.63C14.5222 23.63 14.4317 23.63 14.3675 23.63C14.3223 23.63 14.2808 23.63 14.2355 23.63C14.1902 23.63 14.1676 23.63 14.1487 23.63C14.0808 23.63 14.0167 23.63 13.9488 23.63C14.2808 23.1886 15.2466 22.1775 15.5786 21.9587C15.9747 21.6946 16.1747 21.4305 15.9294 20.9702C15.688 20.5062 15.0504 20.6193 15.0504 20.6193C15.0504 20.6193 15.4239 20.4647 15.7559 20.4647C15.3371 20.3553 14.809 20.4647 14.5675 20.7061C14.3034 20.9476 14.3487 21.8077 14.2393 22.3548C14.1299 22.9282 13.7564 23.215 13.1829 23.7431C12.8736 24.0299 12.6547 24.1166 12.4774 24.1166C12.1039 24.0525 11.6625 23.9393 11.3532 23.8299C11.1343 23.5432 10.8024 22.5962 10.7156 22.2001C10.7797 21.9813 11.0438 21.5172 11.1758 21.2532C11.4399 20.7476 11.5946 20.4609 11.6399 20.1968C11.7267 19.8233 12.0134 17.5106 12.1228 16.5448C12.4095 16.9183 12.8057 17.5371 12.7151 17.9332C13.3527 17.0315 12.8924 16.1487 12.6698 15.7978C12.4737 15.447 12.2096 14.7415 12.4284 13.9945C12.6472 13.2475 13.4395 11.1763 13.4395 11.1763C13.4395 11.1763 13.7036 11.6403 14.0771 11.5498C14.4505 11.463 17.4649 6.92823 17.4649 6.92823C17.4649 6.92823 18.2798 8.70894 17.4197 10.0105C16.5406 11.3083 15.6804 11.5498 15.6804 11.5498C15.6804 11.5498 16.8915 11.7686 18.012 10.9537C18.4722 12.0327 18.9136 13.1532 18.9363 13.3079C18.8684 13.4625 17.9893 15.5752 17.9026 15.7073C17.8573 15.7526 17.5517 15.8393 17.3291 15.8846C16.9556 15.994 16.7368 16.0619 16.6463 16.1261C16.4916 16.2581 15.7861 18.1935 15.4579 19.1404C15.0617 19.2499 14.6656 19.4724 14.3789 19.9101C14.5335 19.8007 15.0165 19.7328 15.3711 19.6913C15.6804 19.6686 16.6236 20.1742 16.8688 21.1211C16.8688 21.1437 16.8688 21.1438 16.8688 21.1664C16.9179 21.5135 16.8085 21.8455 16.6312 22.1096ZM14.5637 22.3736C14.7637 22.0869 14.741 21.604 14.7637 21.4493C14.7863 21.2947 14.8278 21.0079 15.0051 20.9664C15.1825 20.9212 15.6012 20.9891 15.6012 21.2947C15.6012 21.5814 15.2919 21.6455 15.073 21.8455C14.9146 21.9964 14.6052 22.3284 14.5637 22.3736ZM23.3428 18.1671C23.5616 17.0466 23.5842 16.077 23.5201 15.2848C24.3765 16.4279 24.9047 17.8162 25.0594 19.2461C25.082 19.4234 25.2556 19.5969 25.4329 19.7743C25.5875 19.9063 25.7649 20.0836 25.7649 20.193C25.7649 20.6986 25.7196 21.2041 25.6328 21.7134C25.6102 21.7776 25.414 21.8907 25.2593 21.9775C25.0405 22.0869 24.8406 22.1963 24.7991 22.3736C24.3161 24.0676 23.2787 25.5653 21.8941 26.6217C23.9389 24.4864 24.9273 20.9627 23.3428 18.1671ZM21.9582 26.8179C23.3881 25.7163 24.4897 24.177 24.9726 22.4378C24.9952 22.3736 25.1914 22.2605 25.3235 22.1737C25.5423 22.0643 25.7649 21.9322 25.8064 21.7549C25.8931 21.2494 25.9384 20.7212 25.9384 20.193C25.9384 19.9969 25.7385 19.7969 25.5423 19.6007C25.4329 19.4687 25.2555 19.314 25.2555 19.2046C25.0782 17.5974 24.4406 16.0808 23.4522 14.8245C23.0108 12.1836 21.2527 11.3687 21.2074 11.3461C21.2527 11.414 22.3958 13.0626 21.6036 14.998C20.7887 16.9561 18.6986 16.6505 18.5213 16.6693C18.344 16.6693 17.6649 17.5484 16.8047 19.1782C16.6953 19.1329 16.2313 19.0235 15.7031 19.114C16.0992 18.0124 16.6953 16.4505 16.8047 16.3185C16.85 16.2732 17.1782 16.1864 17.4008 16.1223C17.8196 16.0129 18.0157 15.945 18.0837 15.8582C18.1289 15.7903 18.3477 15.2848 18.5666 14.7566C18.7665 14.7566 19.2721 14.7113 19.3136 14.6887C19.3588 14.6434 19.7776 13.5682 19.7776 13.4361C19.7776 13.3267 18.9174 11.1914 18.5892 10.3765C18.7439 10.1992 18.8986 9.98034 19.0495 9.73889C23.5616 10.2256 27.0853 14.0549 27.0853 18.6953C27.0853 22.2605 24.9952 25.3654 21.9582 26.8179Z" fill="#1B314F"/>
<path d="M16.1026 14.9338C16.5214 14.4509 16.3026 13.5493 15.5291 13.3946C15.7291 12.9343 16.0121 12.01 16.0121 12.01C16.0121 12.01 13.7673 15.5299 13.5711 15.5978C13.3712 15.6658 13.175 14.8923 13.175 14.8923C12.7562 16.4995 13.8805 16.7183 14.0125 16.2128C14.6275 16.0543 15.6838 15.3941 16.1026 14.9338Z" fill="#1B314F"/>
<path d="M14.1865 15.7905L15.3297 13.8325C15.3297 13.8325 15.9899 14.1645 15.6579 14.6926C15.2429 15.3076 14.1865 15.7905 14.1865 15.7905Z" fill="#FFD923"/>
<path d="M28.3375 24.8599C28.0055 25.3013 27.632 25.7615 27.1943 26.2029C30.0314 20.7438 27.3264 15.7488 27.217 15.5526C27.4169 15.7526 27.6131 15.9714 27.7904 16.1676C29.9673 18.5859 30.2314 22.219 28.3375 24.8599Z" fill="#D82122"/>
<path d="M30.9791 17.8389C29.9868 15.1753 28.5796 12.908 25.4785 10.8632C22.4867 8.88249 19.2724 9.03717 19.0951 9.05981C19.0724 9.05981 19.0498 9.05981 19.0498 9.05981C19.1592 9.01453 19.2686 8.9919 19.378 8.97304C20.0609 8.75422 20.9399 8.5769 21.8227 8.46749C24.158 8.13172 26.5122 8.92399 28.1194 10.6217C28.142 10.6443 28.142 10.6443 28.1646 10.667C29.9906 12.6024 30.9376 15.0207 30.9791 17.8389Z" fill="#D82122"/>
<path d="M24.7725 6.94331C21.4941 6.32836 19.3814 6.63394 17.861 7.20739C17.8157 7.03008 17.661 6.67922 17.529 6.39249C17.0725 6.94331 16.5858 7.60353 16.2802 8.0223C15.4427 8.59575 15.0918 9.14656 15.0918 9.14656C15.5747 7.49412 16.9857 6.26422 18.7023 5.95486C19.1852 5.86809 19.7133 5.82281 20.2868 5.82281C21.8034 5.84545 23.32 6.21895 24.7725 6.94331Z" fill="#D82122"/>
<path d="M12.6475 11.1686C10.0745 11.0818 10.9309 8.08632 10.9762 7.91278C10.9762 7.93542 11.1497 10.2669 12.6475 11.1686Z" fill="#D82122"/>
<path d="M15.1789 5.77753C13.1982 6.96593 13.5944 9.80299 13.5944 9.80299C11.7005 6.92443 15.0242 5.84544 15.1789 5.77753Z" fill="#D82122"/>
<path d="M11.9228 11.9611C12.0548 12.0705 12.1869 12.2704 12.0322 12.5572C11.9454 12.7118 11.8134 12.6892 11.6134 12.6024C11.3493 12.4704 9.76481 11.5461 8.33496 10.5991C9.96477 11.1726 11.6134 11.7875 11.8775 11.9196C11.8775 11.9196 11.9002 11.9422 11.9228 11.9611Z" fill="white"/>
</svg>
