<svg width="32" height="32" viewBox="0 0 32 32" fill="none" xmlns="http://www.w3.org/2000/svg">
<path d="M16 32C24.8366 32 32 24.8366 32 16C32 7.16344 24.8366 0 16 0C7.16344 0 0 7.16344 0 16C0 24.8366 7.16344 32 16 32Z" fill="#CAE9FF"/>
<path d="M16.0002 18.0645C12.4182 18.0645 9.51465 19.7002 9.51465 21.718C9.51465 23.7358 12.4182 25.3715 16.0002 25.3715C19.5821 25.3715 22.4857 23.7358 22.4857 21.718C22.4857 19.7003 19.5819 18.0645 16.0002 18.0645ZM12.6894 22.1874C12.032 22.5012 11.4197 22.1874 11.3024 21.4757C11.1736 20.7132 12.224 18.901 12.4657 20.2713C12.7073 21.6416 13.7827 19.7254 13.7893 20.583C13.7534 21.2753 13.3306 21.8921 12.6894 22.1874ZM20.6976 21.4757C20.5801 22.1874 19.9679 22.5012 19.3106 22.1874C18.6693 21.8921 18.2465 21.2753 18.2107 20.583C18.2173 19.7254 19.2926 21.6416 19.5344 20.2713C19.7759 18.901 20.8261 20.7132 20.6976 21.4757Z" fill="#052B65"/>
<path d="M25.3583 9.60512C25.1723 8.30413 20.674 9.232 20.0894 9.33024C20.0594 9.3353 20.0314 9.31021 20.0375 9.28116C20.097 8.98957 20.14 8.20135 19.5694 8.03072C19.2044 7.92154 18.9639 8.12301 18.8211 8.32628C18.7571 8.41741 18.5658 8.81159 18.447 9.08525C18.3829 9.23296 18.2338 9.4489 18.0698 9.445C17.382 9.23552 16.6912 9.13082 16.0005 9.13082C15.3097 9.13082 14.6188 9.23552 13.931 9.445C13.767 9.4489 13.6177 9.23296 13.5536 9.08525C13.4348 8.81159 13.2435 8.41741 13.1795 8.32628C13.0369 8.12301 12.7963 7.92154 12.4314 8.03072C11.8607 8.20135 11.9036 8.98957 11.9632 9.28116C11.9692 9.31021 11.9412 9.3353 11.9113 9.33024C11.3267 9.232 6.8285 8.30413 6.64232 9.60512C6.46575 10.8392 8.06101 12.541 9.73019 13.3058C9.89135 13.3797 10.0195 13.5045 10.1756 13.5875C10.4383 13.7274 10.595 14.0764 10.5566 14.3914V18.9358L11.166 18.5937C12.0949 18.0732 13.0646 17.8296 13.811 17.685H13.8375C14.4339 17.5556 15.0428 17.489 15.6538 17.4862H16.347C16.9578 17.489 17.5667 17.5556 18.1633 17.685H18.1896C18.9362 17.8296 19.9057 18.0732 20.8349 18.5937L21.4444 18.9358V14.3914C21.4057 14.0764 21.5623 13.7274 21.825 13.5875C21.9815 13.5045 22.1093 13.3797 22.2704 13.3058C23.9397 12.541 25.5351 10.8392 25.3583 9.60512ZM15.5663 14.2641C15.5406 14.3989 15.2114 14.6472 14.3953 14.8529C13.8239 14.9935 13.2293 15.046 12.6412 15.0104C12.5029 15.0019 12.3643 14.9794 12.2361 14.9283C12.002 14.8351 11.8042 14.6749 11.657 14.4639C11.4585 14.1882 11.3638 13.8813 11.4244 13.5495C11.4835 13.2173 11.6796 12.9605 11.9628 12.7681C12.1749 12.6188 12.4167 12.5345 12.6692 12.5253C12.8074 12.5204 12.9457 12.5453 13.0785 12.5837C13.6436 12.747 14.1841 12.9954 14.6719 13.3188C15.3668 13.785 15.5893 14.1286 15.5663 14.2641ZM20.3437 14.4639C20.1967 14.6749 19.9988 14.8351 19.7647 14.9283C19.6366 14.9794 19.4979 15.0019 19.3598 15.0104C18.7716 15.046 18.1768 14.9935 17.6055 14.8529C16.7892 14.6472 16.4603 14.3989 16.4346 14.2641C16.4115 14.1286 16.6339 13.785 17.329 13.3188C17.8168 12.9954 18.3572 12.747 18.9225 12.5837C19.0551 12.5453 19.1933 12.5204 19.3317 12.5253C19.5841 12.5344 19.8262 12.6188 20.0381 12.7681C20.3212 12.9605 20.5175 13.2172 20.5763 13.5494C20.637 13.8812 20.5423 14.1882 20.3437 14.4639Z" fill="#052B65"/>
</svg>
