<svg width="18" height="18" viewBox="0 0 18 18" fill="none" xmlns="http://www.w3.org/2000/svg">
<path d="M0.362003 11.5265C-0.137745 9.81811 -0.119696 8.00004 0.413868 6.30194C0.947431 4.60389 1.97255 3.10217 3.35959 1.98668C4.74664 0.871194 6.43331 0.192027 8.20636 0.0350669C9.97936 -0.121893 11.7591 0.250404 13.3206 1.10487C14.882 1.95935 16.155 3.25762 16.9787 4.83553C17.8023 6.41345 18.1395 8.20014 17.9476 9.96969C17.7558 11.7392 17.0435 13.4121 15.9008 14.7769C14.7582 16.1417 13.2365 17.1369 11.5283 17.6369C10.3938 17.9694 9.20506 18.075 8.02981 17.9478C6.85452 17.8206 5.71586 17.4629 4.67886 16.8955C3.64186 16.328 2.72686 15.5618 1.98615 14.6405C1.24544 13.7192 0.693545 12.6611 0.362003 11.5265Z" fill="url(#paint0_linear_1038_340)"/>
<path d="M8.82728 11.1885L12.3112 9.6387L9.05055 3.49327L5.44141 9.43935L8.82728 11.1885Z" fill="white"/>
<path d="M9.05056 3.49327L8.96679 11.1926L5.44141 9.43943L9.05056 3.49327Z" fill="#E7E9EE"/>
<path d="M8.94586 15.0635L12.5696 10.196L8.94586 11.8149L5.42871 9.99097L8.94586 15.0635Z" fill="white"/>
<path d="M8.92185 7.89124L12.3112 9.63852L8.82727 11.1882L5.44141 9.43917L8.92185 7.89124Z" fill="#AEAEAE" fill-opacity="0.7"/>
<path d="M5.44141 9.43917L8.92185 7.89124L8.82727 11.1882L5.44141 9.43917Z" fill="#939393"/>
<path d="M5.41992 10.0021L8.93708 11.8261V15.0636L5.41992 10.0021Z" fill="#E7E9EE"/>
<defs>
<linearGradient id="paint0_linear_1038_340" x1="18.4567" y1="18.3751" x2="-4.32191" y2="-5.46995" gradientUnits="userSpaceOnUse">
<stop stop-color="#242424"/>
<stop offset="1" stop-color="#9B9B9B" stop-opacity="0.94"/>
</linearGradient>
</defs>
</svg>
