<svg width="14" height="14" viewBox="0 0 14 14" fill="none" xmlns="http://www.w3.org/2000/svg">
<path fill-rule="evenodd" clip-rule="evenodd" d="M8.75 10.5C8.75 11.4665 9.5335 12.25 10.5 12.25C11.4665 12.25 12.25 11.4665 12.25 10.5V4.56659L12.25 4.56264V4.08334C12.25 3.92863 12.1885 3.78026 12.0791 3.67087L11.7412 3.33296L11.7374 3.32915L9.74581 1.33752L8.92085 2.16248L10.3736 3.61518L9.85508 4.65214C9.27348 5.81533 9.92481 7.15594 11.0833 7.49969V10.5C11.0833 10.8222 10.8222 11.0833 10.5 11.0833C10.1778 11.0833 9.91667 10.8222 9.91667 10.5V9.33334C9.91667 8.36684 9.13316 7.58334 8.16667 7.58334V2.33333L7.58333 1.74999H2.33333L1.75 2.33333V11.6667L2.33333 12.25H7.58333L8.16667 11.6667V8.75C8.48883 8.75 8.75 9.01117 8.75 9.33334V10.5ZM7 5.24999H2.91667V2.91666H7V5.24999Z" fill="#6F58F6"/>
</svg>
