<svg width="18" height="18" viewBox="0 0 18 18" fill="none" xmlns="http://www.w3.org/2000/svg">
<path d="M9 18C13.9706 18 18 13.9706 18 9C18 4.02944 13.9706 0 9 0C4.02944 0 0 4.02944 0 9C0 13.9706 4.02944 18 9 18Z" fill="url(#paint0_linear_1038_677)"/>
<path d="M11.6031 10.9422L14.1494 9.47186C14.2843 9.39395 14.3677 9.24916 14.3677 9.09335V6.15313C14.3677 5.99768 14.2839 5.85253 14.1494 5.77462L11.6031 4.30432C11.4683 4.22642 11.3011 4.22679 11.1662 4.30432L8.61991 5.77462C8.48504 5.85253 8.40163 5.99768 8.40163 6.15313V11.4078L6.61603 12.4385L4.83044 11.4078V9.34581L6.61603 8.31502L7.79381 8.99486V7.61166L6.83431 7.05787C6.76817 7.01965 6.69247 6.99944 6.61566 6.99944C6.53886 6.99944 6.46316 7.01965 6.39738 7.05787L3.8511 8.52816C3.71623 8.60607 3.63281 8.75086 3.63281 8.90667V11.8469C3.63281 12.0023 3.7166 12.1475 3.8511 12.2254L6.39738 13.6957C6.53188 13.7732 6.69945 13.7732 6.83431 13.6957L9.3806 12.2258C9.51546 12.1479 9.59888 12.0027 9.59888 11.8473V6.59263L9.63122 6.57426L11.3845 5.56185L13.1701 6.59263V8.65458L11.3845 9.68536L10.2085 9.00626V10.3895L11.1662 10.9425C11.3011 11.0201 11.4683 11.0201 11.6031 10.9425V10.9422Z" fill="white"/>
<defs>
<linearGradient id="paint0_linear_1038_677" x1="-3.28948" y1="1.47941" x2="15.2926" y2="12.8508" gradientUnits="userSpaceOnUse">
<stop stop-color="#A229C5"/>
<stop offset="1" stop-color="#7B3FE4"/>
</linearGradient>
</defs>
</svg>
