<svg width="32" height="32" viewBox="0 0 32 32" fill="none" xmlns="http://www.w3.org/2000/svg">
<path d="M32 16C32 7.16344 24.8366 0 16 0C7.16344 0 0 7.16344 0 16C0 24.8366 7.16344 32 16 32C24.8366 32 32 24.8366 32 16Z" fill="url(#paint0_linear_1038_957)"/>
<path d="M14.9295 7.81859C13.1202 8.10771 11.5067 8.97507 10.1824 10.374C8.74611 11.8849 8 13.7502 8 15.8486C8 18.0124 8.73679 19.9056 10.1824 21.4165C11.3109 22.6103 12.5793 23.3751 14.1368 23.7948C15.1627 24.0746 17.0746 24.0652 18.1192 23.7854C20.5161 23.1419 22.5212 21.4725 23.5192 19.2808L23.8363 18.5813L24.5264 18.5253C24.8995 18.4974 25.3751 18.4227 25.5803 18.3481L25.9534 18.2269V17.3409V16.4549L25.4404 16.4922C24.2373 16.5761 24.2746 16.5854 24.2466 16.231C24.228 16.0632 24.2466 15.886 24.2933 15.8393C24.3306 15.802 24.6756 15.6994 25.058 15.6248C25.4311 15.5409 25.7948 15.429 25.8694 15.373C25.9627 15.2984 26 15.0372 26 14.4963C26 13.5637 25.9254 13.4704 25.3285 13.601C25.114 13.6476 24.7223 13.7129 24.4798 13.7409C23.9762 13.7968 24.0415 13.8714 23.6311 12.7616C23.4259 12.202 22.8943 11.316 22.3627 10.6632C21.4021 9.4787 19.5741 8.3502 18.0259 7.96782C17.2705 7.79061 15.6383 7.70667 14.9295 7.81859ZM17.7927 10.029C18.6601 10.2808 19.5741 10.8217 20.2922 11.5025C20.9544 12.1274 21.6819 13.1533 21.5793 13.3212C21.5513 13.3585 21.2622 13.3398 20.9451 13.2559C20.3016 13.0973 18.1751 13.0414 17.5876 13.172C17.028 13.2932 16.9534 13.4238 16.9534 14.3005C16.9534 15.2891 17.0093 15.3543 17.7648 15.1865C18.0632 15.1212 18.7907 15.0746 19.3782 15.0746C20.2549 15.0839 20.6093 15.1305 21.2902 15.3357C21.7471 15.4663 22.1575 15.6341 22.1948 15.6901C22.2508 15.7834 22.2041 16.1657 22.1202 16.3336C22.1016 16.3616 21.7751 16.315 21.4114 16.2124C19.9098 15.83 17.9886 15.802 17.2518 16.1471C17.0093 16.2683 17 16.3056 16.972 17.0797C16.9347 18.1523 16.9813 18.1989 17.9047 18.0217C19.229 17.7606 21.6166 18.031 21.6166 18.4414C21.6166 18.7305 20.8891 19.7284 20.2176 20.3533C19.0518 21.4632 17.2984 22.0974 15.7409 21.9761C14.9016 21.9108 13.7451 21.5564 13.0642 21.1647C12.0104 20.5585 10.9565 19.3367 10.4528 18.1336C9.95855 16.9678 9.92124 15.1492 10.3596 13.9087C11.087 11.829 13.0642 10.1782 15.228 9.84243C15.7503 9.76782 17.2798 9.87041 17.7927 10.029Z" fill="black"/>
<defs>
<linearGradient id="paint0_linear_1038_957" x1="16" y1="0" x2="16" y2="32" gradientUnits="userSpaceOnUse">
<stop stop-color="#F4F4F4"/>
<stop offset="1" stop-color="#E5E5E5"/>
</linearGradient>
</defs>
</svg>
