<svg width="20" height="20" viewBox="0 0 20 20" fill="none" xmlns="http://www.w3.org/2000/svg">
<path d="M10 20C15.5228 20 20 15.5228 20 10C20 4.47715 15.5228 0 10 0C4.47715 0 0 4.47715 0 10C0 15.5228 4.47715 20 10 20Z" fill="black"/>
<path fill-rule="evenodd" clip-rule="evenodd" d="M2 12.7817V10C2 5.58174 5.58172 2.00003 9.99999 2.00003C12.1793 2.00003 14.155 2.87144 15.5979 4.28482L13.8972 5.34752C12.8429 4.46342 11.4836 3.93106 9.99999 3.93106C6.6482 3.93106 3.93103 6.64823 3.93103 10H5.86206L2 12.7817ZM6.07356 14.6278C7.13194 15.5267 8.50269 16.069 10.0001 16.069C13.3519 16.069 16.0691 13.3518 16.0691 10H14.138L17.9999 7.17247L18.0001 10C18.0001 14.4183 14.4184 18 10.0001 18C7.80728 18 5.82054 17.1178 4.37543 15.6889L6.07356 14.6278ZM13.069 12.6552H10.8621L10.0001 11.4908L9.13811 12.6552H6.93122L8.93053 10.0459L6.93104 7.34489H9.00001L10.0001 8.65008L11.0002 7.34489H13.0691L11.0697 10.0459L13.069 12.6552Z" fill="white"/>
</svg>
