<svg width="18" height="16" viewBox="0 0 18 16" fill="none" xmlns="http://www.w3.org/2000/svg">
<path fill-rule="evenodd" clip-rule="evenodd" d="M5.43652 14.1942L7.61977 14.7739V14.0158L7.79798 13.8374H9.04557V14.7294V15.3537H7.7089L6.06032 14.6402L5.43652 14.1942Z" fill="#CDBDB2"/>
<path fill-rule="evenodd" clip-rule="evenodd" d="M12.5655 14.1942L10.4268 14.7739V14.0158L10.2486 13.8374H9.00098V14.7294V15.3537H10.3377L11.9862 14.6402L12.5655 14.1942Z" fill="#CDBDB2"/>
<path fill-rule="evenodd" clip-rule="evenodd" d="M7.79833 12.5441L7.62012 14.0158L7.84287 13.8374H10.1598L10.4271 14.0158L10.2489 12.5441L9.89245 12.3211L8.1102 12.3657L7.79833 12.5441Z" fill="#393939"/>
<path fill-rule="evenodd" clip-rule="evenodd" d="M6.59473 2.59874L7.66406 5.09623L8.15418 12.3657H9.89185L10.4265 5.09623L11.4068 2.59874H6.59473Z" fill="#F89C35"/>
<path fill-rule="evenodd" clip-rule="evenodd" d="M1.91651 8.08425L0.668945 11.6967L3.78786 11.5183H5.79288V9.95738L5.70375 6.74634L5.25821 7.10313L1.91651 8.08425Z" fill="#F89D35"/>
<path fill-rule="evenodd" clip-rule="evenodd" d="M4.27832 8.48569L7.93188 8.57485L7.53088 10.448L5.79322 10.002L4.27832 8.48569Z" fill="#D87C30"/>
<path fill-rule="evenodd" clip-rule="evenodd" d="M4.27832 8.53024L5.79322 9.95737V11.3845L4.27832 8.53024Z" fill="#EA8D3A"/>
<path fill-rule="evenodd" clip-rule="evenodd" d="M5.79297 10.002L7.57522 10.448L8.15443 12.3657L7.75343 12.5887L5.79297 11.4291V10.002Z" fill="#F89D35"/>
<path fill-rule="evenodd" clip-rule="evenodd" d="M5.79298 11.4291L5.43652 14.1942L7.79798 12.5441L5.79298 11.4291Z" fill="#EB8F35"/>
<path fill-rule="evenodd" clip-rule="evenodd" d="M7.93187 8.57485L8.15466 12.3657L7.48633 10.4257L7.93187 8.57485Z" fill="#EA8E3A"/>
<path fill-rule="evenodd" clip-rule="evenodd" d="M3.74316 11.4737L5.79273 11.4291L5.43627 14.1942L3.74316 11.4737Z" fill="#D87C30"/>
<path fill-rule="evenodd" clip-rule="evenodd" d="M1.64917 15.3983L5.43642 14.1942L3.7433 11.4737L0.668945 11.6967L1.64917 15.3983Z" fill="#EB8F35"/>
<path fill-rule="evenodd" clip-rule="evenodd" d="M7.66455 5.0962L5.74867 6.70174L4.27832 8.48566L7.93188 8.61945L7.66455 5.0962Z" fill="#E8821E"/>
<path fill-rule="evenodd" clip-rule="evenodd" d="M5.43652 14.1942L7.79798 12.5441L7.61977 13.9712V14.7739L6.01577 14.4618L5.43652 14.1942Z" fill="#DFCEC3"/>
<path fill-rule="evenodd" clip-rule="evenodd" d="M12.565 14.1942L10.248 12.5441L10.4263 13.9712V14.7739L12.0303 14.4618L12.565 14.1942Z" fill="#DFCEC3"/>
<path fill-rule="evenodd" clip-rule="evenodd" d="M6.95169 9.37761L7.44177 10.4034L5.7041 9.95736L6.95169 9.37761Z" fill="#393939"/>
<path fill-rule="evenodd" clip-rule="evenodd" d="M1.60449 0.502644L7.66409 5.09623L6.6393 2.59874L1.60449 0.502644Z" fill="#E88F35"/>
<path fill-rule="evenodd" clip-rule="evenodd" d="M1.60474 0.502644L0.802734 2.95553L1.24829 5.6314L0.936402 5.80982L1.38196 6.21119L1.02551 6.52336L1.51563 6.96936L1.20374 7.23694L1.91663 8.1289L5.25833 7.10315C6.89204 5.79494 7.69404 5.12594 7.66433 5.09623C7.63462 5.06648 5.61475 3.5353 1.60474 0.502644Z" fill="#8E5A30"/>
<path fill-rule="evenodd" clip-rule="evenodd" d="M16.0854 8.08425L17.3329 11.6967L14.214 11.5183H12.209V9.95738L12.2981 6.74634L12.7437 7.10313L16.0854 8.08425Z" fill="#F89D35"/>
<path fill-rule="evenodd" clip-rule="evenodd" d="M13.7239 8.48569L10.0703 8.57485L10.4713 10.448L12.209 10.002L13.7239 8.48569Z" fill="#D87C30"/>
<path fill-rule="evenodd" clip-rule="evenodd" d="M13.7239 8.53024L12.209 9.95737V11.3845L13.7239 8.53024Z" fill="#EA8D3A"/>
<path fill-rule="evenodd" clip-rule="evenodd" d="M12.2091 10.002L10.4269 10.448L9.84766 12.3657L10.2487 12.5887L12.2091 11.4291V10.002Z" fill="#F89D35"/>
<path fill-rule="evenodd" clip-rule="evenodd" d="M12.2085 11.4291L12.565 14.1942L10.248 12.5886L12.2085 11.4291Z" fill="#EB8F35"/>
<path fill-rule="evenodd" clip-rule="evenodd" d="M10.0704 8.57485L9.84766 12.3657L10.516 10.4257L10.0704 8.57485Z" fill="#EA8E3A"/>
<path fill-rule="evenodd" clip-rule="evenodd" d="M14.2585 11.4737L12.209 11.4291L12.5654 14.1942L14.2585 11.4737Z" fill="#D87C30"/>
<path fill-rule="evenodd" clip-rule="evenodd" d="M16.3527 15.3983L12.5654 14.1942L14.2586 11.4737L17.3329 11.6967L16.3527 15.3983Z" fill="#EB8F35"/>
<path fill-rule="evenodd" clip-rule="evenodd" d="M10.3376 5.0962L12.2536 6.70174L13.7239 8.48566L10.0703 8.61945L10.3376 5.0962Z" fill="#E8821E"/>
<path fill-rule="evenodd" clip-rule="evenodd" d="M11.0507 9.37761L10.5605 10.4034L12.2983 9.95736L11.0507 9.37761Z" fill="#393939"/>
<path fill-rule="evenodd" clip-rule="evenodd" d="M16.3975 0.502644L10.3379 5.09623L11.3627 2.59874L16.3975 0.502644Z" fill="#E88F35"/>
<path fill-rule="evenodd" clip-rule="evenodd" d="M16.3973 0.502644L17.1993 2.95553L16.7538 5.6314L17.0656 5.80982L16.6201 6.21119L16.9765 6.52336L16.4864 6.96936L16.7983 7.23694L16.0854 8.1289L12.7438 7.10315C11.11 5.79494 10.308 5.12594 10.3377 5.09623C10.3674 5.06648 12.3873 3.5353 16.3973 0.502644Z" fill="#8E5A30"/>
</svg>
