<svg width="18" height="18" viewBox="0 0 18 18" fill="none" xmlns="http://www.w3.org/2000/svg">
<path fill-rule="evenodd" clip-rule="evenodd" d="M11.4018 3.5023C11.3317 3.47133 11.2607 3.44157 11.1889 3.41311L10.7106 1.5H7.28942L6.81113 3.41311C6.7393 3.44157 6.66833 3.47133 6.59823 3.5023L4.90628 2.48714L2.48712 4.90623L3.50234 6.59824C3.47137 6.66833 3.44161 6.73929 3.41314 6.81113L1.5 7.28943V10.7106L3.41312 11.1889C3.44158 11.2607 3.47135 11.3317 3.50231 11.4018L2.48714 13.0937L4.90628 15.5129L6.59825 14.4977C6.66834 14.5287 6.7393 14.5584 6.81114 14.5869L7.28943 16.5H10.7106L11.1889 14.5869C11.2607 14.5584 11.3317 14.5287 11.4018 14.4977L13.0937 15.5129L15.5129 13.0937L14.4977 11.4018C14.5287 11.3317 14.5584 11.2607 14.5869 11.1889L16.5 10.7106V7.28943L14.5869 6.81113C14.5584 6.7393 14.5286 6.66833 14.4977 6.59825L15.5129 4.90623L13.0937 2.48714L11.4018 3.5023ZM12 9C12 10.6569 10.6569 12 9 12C7.34315 12 6 10.6569 6 9C6 7.34315 7.34315 6 9 6C10.6569 6 12 7.34315 12 9Z" fill="#494656"/>
</svg>
